<svg xmlns="http://www.w3.org/2000/svg" viewBox="0 0 750 1050" role="img" aria-label="Valthera card back placeholder">
  <defs>
    <linearGradient id="bg" x1="0" y1="0" x2="0" y2="1">
      <stop offset="0%" stop-color="#2D1B0E"/>
      <stop offset="100%" stop-color="#1A0F08"/>
    </linearGradient>
    <linearGradient id="gold" x1="0" y1="0" x2="1" y2="1">
      <stop offset="0%" stop-color="#C9A227"/>
      <stop offset="100%" stop-color="#D4AF37"/>
    </linearGradient>
    <pattern id="dots" width="24" height="24" patternUnits="userSpaceOnUse">
      <circle cx="12" cy="12" r="1.5" fill="#C9A227" fill-opacity="0.18"/>
    </pattern>
  </defs>
  <rect width="750" height="1050" rx="44" fill="url(#bg)"/>
  <rect x="24" y="24" width="702" height="1002" rx="34" fill="none" stroke="#C9A227" stroke-width="6"/>
  <rect x="50" y="50" width="650" height="950" rx="28" fill="url(#dots)" stroke="#8B5A2B" stroke-opacity="0.35"/>

  <g transform="translate(375 470)">
    <path d="M0 -145 L120 -95 L120 0 C120 95 52 163 0 195 C-52 163 -120 95 -120 0 L-120 -95 Z" fill="url(#gold)" opacity="0.95"/>
    <path d="M-26 -28 L0 58 L26 -28 L14 -28 L0 20 L-14 -28 Z" fill="#1A0F08"/>
  </g>

  <text x="375" y="640" text-anchor="middle" font-family="Cinzel, serif" font-size="74" fill="url(#gold)" letter-spacing="8">VALTHERA</text>
  <text x="375" y="705" text-anchor="middle" font-family="Cinzel, serif" font-size="26" fill="#E8D5A3" letter-spacing="12">CARD BACK PLACEHOLDER</text>
</svg>
