<svg xmlns="http://www.w3.org/2000/svg" viewBox="0 0 100 100">
  <defs>
    <linearGradient id="shieldGrad" x1="0%" y1="0%" x2="100%" y2="100%">
      <stop offset="0%" style="stop-color:#C9A227;stop-opacity:1" />
      <stop offset="50%" style="stop-color:#8B6914;stop-opacity:1" />
      <stop offset="100%" style="stop-color:#D4AF37;stop-opacity:1" />
    </linearGradient>
    <linearGradient id="innerGrad" x1="0%" y1="0%" x2="0%" y2="100%">
      <stop offset="0%" style="stop-color:#2D1B0E;stop-opacity:1" />
      <stop offset="100%" style="stop-color:#1A0F08;stop-opacity:1" />
    </linearGradient>
  </defs>
  
  <!-- Shield Base -->
  <path d="M50 5 L90 20 L90 50 Q90 80 50 95 Q10 80 10 50 L10 20 Z" 
        fill="url(#shieldGrad)" 
        stroke="#5C4A1F" 
        stroke-width="2"/>
  
  <!-- Inner Shield -->
  <path d="M50 12 L82 24 L82 48 Q82 74 50 87 Q18 74 18 48 L18 24 Z" 
        fill="url(#innerGrad)"/>
  
  <!-- V Letter stylized as sword/rune -->
  <path d="M35 30 L50 70 L65 30 L58 30 L50 55 L42 30 Z" 
        fill="url(#shieldGrad)"/>
  
  <!-- Decorative diamond -->
  <path d="M50 22 L54 28 L50 34 L46 28 Z" 
        fill="#D4AF37"/>
  
  <!-- Small decorative lines -->
  <line x1="30" y1="75" x2="40" y2="75" stroke="#C9A227" stroke-width="1.5"/>
  <line x1="60" y1="75" x2="70" y2="75" stroke="#C9A227" stroke-width="1.5"/>
</svg>
